  0
SECTION
  2
HEADER
  9
$ANGBASE
  50
0.0
  9
$ANGDIR
  70
1
  9
$MEASUREMENT
  70
1
  0
ENDSEC
  0
SECTION
  2
TABLES
  0
TABLE
  2
LTYPE
  70
4
  0
LTYPE
  5
40F
  2
CONTINUOUS
  70
0
  3
Solid line
  72
65
  73
0
  40
0.0
  0
LTYPE
  5
410
  2
DASHDOT
 70
0
  3
Dash Dot ____ _ ____ _
 72
65
 73
4
 40
2.0
 49
1.25
 49
-0.25
 49
0.25
 49
-0.25
  0
LTYPE
  5
411
  2
DASHED
 70
0
  3
Dashed __ __ __ __ __
 72
65
 73
2
 40
0.75
 49
0.5
 49
-0.25
  0
LTYPE
  5
43B
  2
DOTTED
 70
0
  3
Dotted .  .  .  .
 72
65
 73
2
 40
0.2
 49
0.0
 49
-0.2
  0
ENDTAB
  0
TABLE
  2
STYLE
  70
4
  0
STYLE
  2
KICAD
  70
0
  40
0
  41
1
  42
1
  50
0
  71
0
  3
isocp.shx
  0
STYLE
  2
KICADB
  70
0
  40
0
  41
1
  42
1
  50
0
  71
0
  3
isocp.shx
  0
STYLE
  2
KICADI
  70
0
  40
0
  41
1
  42
1
  50
15
  71
0
  3
isocp.shx
  0
STYLE
  2
KICADBI
  70
0
  40
0
  41
1
  42
1
  50
15
  71
0
  3
isocp.shx
  0
ENDTAB
  0
TABLE
  2
LAYER
  70
1
  0
LAYER
  2
BLACK
  70
0
  62
7
  6
CONTINUOUS
  0
ENDTAB
  0
ENDSEC
  0
SECTION
  2
ENTITIES
0
LINE
8
BLACK
6
CONTINUOUS
10
2.54002
20
0.015
11
51.502
21
0.015
0
ARC
8
BLACK
10
51.502
20
2.555
40
2.54002
50
-90
51
0.000428587
0
LINE
8
BLACK
6
CONTINUOUS
10
0
20
20.029
11
0
21
2.55502
0
LINE
8
BLACK
6
CONTINUOUS
10
2.54002
20
22.569
11
51.502
21
22.569
0
ARC
8
BLACK
10
2.53955
20
20.0295
40
2.53955
50
-270.01
51
-179.988
0
LINE
8
BLACK
6
CONTINUOUS
10
54.042
20
2.55502
11
54.042
21
20.029
0
ARC
8
BLACK
10
51.502
20
20.0289
40
2.54007
50
0.00121809
51
90
0
ARC
8
BLACK
10
2.54005
20
2.5551
40
2.5401
50
-179.998
51
-90.0008
0
LINE
8
BLACK
6
CONTINUOUS
10
23.8781
20
26.3826
11
23.4019
21
26.3826
0
LINE
8
BLACK
6
CONTINUOUS
10
23.4019
20
26.3826
11
23.3543
21
25.9064
0
LINE
8
BLACK
6
CONTINUOUS
10
23.3543
20
25.9064
11
23.4019
21
25.954
0
LINE
8
BLACK
6
CONTINUOUS
10
23.4019
20
25.954
11
23.4972
21
26.0017
0
LINE
8
BLACK
6
CONTINUOUS
10
23.4972
20
26.0017
11
23.7353
21
26.0017
0
LINE
8
BLACK
6
CONTINUOUS
10
23.7353
20
26.0017
11
23.8305
21
25.954
0
LINE
8
BLACK
6
CONTINUOUS
10
23.8305
20
25.954
11
23.8781
21
25.9064
0
LINE
8
BLACK
6
CONTINUOUS
10
23.8781
20
25.9064
11
23.9257
21
25.8112
0
LINE
8
BLACK
6
CONTINUOUS
10
23.9257
20
25.8112
11
23.9257
21
25.5731
0
LINE
8
BLACK
6
CONTINUOUS
10
23.9257
20
25.5731
11
23.8781
21
25.4779
0
LINE
8
BLACK
6
CONTINUOUS
10
23.8781
20
25.4779
11
23.8305
21
25.4302
0
LINE
8
BLACK
6
CONTINUOUS
10
23.8305
20
25.4302
11
23.7353
21
25.3826
0
LINE
8
BLACK
6
CONTINUOUS
10
23.7353
20
25.3826
11
23.4972
21
25.3826
0
LINE
8
BLACK
6
CONTINUOUS
10
23.4972
20
25.3826
11
23.4019
21
25.4302
0
LINE
8
BLACK
6
CONTINUOUS
10
23.4019
20
25.4302
11
23.3543
21
25.4779
0
LINE
8
BLACK
6
CONTINUOUS
10
24.7829
20
26.0493
11
24.7829
21
25.3826
0
LINE
8
BLACK
6
CONTINUOUS
10
24.5448
20
26.4302
11
24.3067
21
25.716
0
LINE
8
BLACK
6
CONTINUOUS
10
24.3067
20
25.716
11
24.9257
21
25.716
0
LINE
8
BLACK
6
CONTINUOUS
10
25.3067
20
25.4779
11
25.3543
21
25.4302
0
LINE
8
BLACK
6
CONTINUOUS
10
25.3543
20
25.4302
11
25.3067
21
25.3826
0
LINE
8
BLACK
6
CONTINUOUS
10
25.3067
20
25.3826
11
25.2591
21
25.4302
0
LINE
8
BLACK
6
CONTINUOUS
10
25.2591
20
25.4302
11
25.3067
21
25.4779
0
LINE
8
BLACK
6
CONTINUOUS
10
25.3067
20
25.4779
11
25.3067
21
25.3826
0
LINE
8
BLACK
6
CONTINUOUS
10
25.9734
20
26.3826
11
26.0686
21
26.3826
0
LINE
8
BLACK
6
CONTINUOUS
10
26.0686
20
26.3826
11
26.1638
21
26.335
0
LINE
8
BLACK
6
CONTINUOUS
10
26.1638
20
26.335
11
26.2115
21
26.2874
0
LINE
8
BLACK
6
CONTINUOUS
10
26.2115
20
26.2874
11
26.2591
21
26.1921
0
LINE
8
BLACK
6
CONTINUOUS
10
26.2591
20
26.1921
11
26.3067
21
26.0017
0
LINE
8
BLACK
6
CONTINUOUS
10
26.3067
20
26.0017
11
26.3067
21
25.7636
0
LINE
8
BLACK
6
CONTINUOUS
10
26.3067
20
25.7636
11
26.2591
21
25.5731
0
LINE
8
BLACK
6
CONTINUOUS
10
26.2591
20
25.5731
11
26.2115
21
25.4779
0
LINE
8
BLACK
6
CONTINUOUS
10
26.2115
20
25.4779
11
26.1638
21
25.4302
0
LINE
8
BLACK
6
CONTINUOUS
10
26.1638
20
25.4302
11
26.0686
21
25.3826
0
LINE
8
BLACK
6
CONTINUOUS
10
26.0686
20
25.3826
11
25.9734
21
25.3826
0
LINE
8
BLACK
6
CONTINUOUS
10
25.9734
20
25.3826
11
25.8781
21
25.4302
0
LINE
8
BLACK
6
CONTINUOUS
10
25.8781
20
25.4302
11
25.8305
21
25.4779
0
LINE
8
BLACK
6
CONTINUOUS
10
25.8305
20
25.4779
11
25.7829
21
25.5731
0
LINE
8
BLACK
6
CONTINUOUS
10
25.7829
20
25.5731
11
25.7353
21
25.7636
0
LINE
8
BLACK
6
CONTINUOUS
10
25.7353
20
25.7636
11
25.7353
21
26.0017
0
LINE
8
BLACK
6
CONTINUOUS
10
25.7353
20
26.0017
11
25.7829
21
26.1921
0
LINE
8
BLACK
6
CONTINUOUS
10
25.7829
20
26.1921
11
25.8305
21
26.2874
0
LINE
8
BLACK
6
CONTINUOUS
10
25.8305
20
26.2874
11
25.8781
21
26.335
0
LINE
8
BLACK
6
CONTINUOUS
10
25.8781
20
26.335
11
25.9734
21
26.3826
0
LINE
8
BLACK
6
CONTINUOUS
10
27.1638
20
26.0493
11
27.1638
21
25.3826
0
LINE
8
BLACK
6
CONTINUOUS
10
26.9257
20
26.4302
11
26.6877
21
25.716
0
LINE
8
BLACK
6
CONTINUOUS
10
26.6877
20
25.716
11
27.3067
21
25.716
0
LINE
8
BLACK
6
CONTINUOUS
10
28.4496
20
25.3826
11
28.4496
21
26.0493
0
LINE
8
BLACK
6
CONTINUOUS
10
28.4496
20
25.954
11
28.4972
21
26.0017
0
LINE
8
BLACK
6
CONTINUOUS
10
28.4972
20
26.0017
11
28.5924
21
26.0493
0
LINE
8
BLACK
6
CONTINUOUS
10
28.5924
20
26.0493
11
28.7353
21
26.0493
0
LINE
8
BLACK
6
CONTINUOUS
10
28.7353
20
26.0493
11
28.8305
21
26.0017
0
LINE
8
BLACK
6
CONTINUOUS
10
28.8305
20
26.0017
11
28.8781
21
25.9064
0
LINE
8
BLACK
6
CONTINUOUS
10
28.8781
20
25.9064
11
28.8781
21
25.3826
0
LINE
8
BLACK
6
CONTINUOUS
10
28.8781
20
25.9064
11
28.9257
21
26.0017
0
LINE
8
BLACK
6
CONTINUOUS
10
28.9257
20
26.0017
11
29.021
21
26.0493
0
LINE
8
BLACK
6
CONTINUOUS
10
29.021
20
26.0493
11
29.1638
21
26.0493
0
LINE
8
BLACK
6
CONTINUOUS
10
29.1638
20
26.0493
11
29.2591
21
26.0017
0
LINE
8
BLACK
6
CONTINUOUS
10
29.2591
20
26.0017
11
29.3067
21
25.9064
0
LINE
8
BLACK
6
CONTINUOUS
10
29.3067
20
25.9064
11
29.3067
21
25.3826
0
LINE
8
BLACK
6
CONTINUOUS
10
29.7829
20
25.3826
11
29.7829
21
26.0493
0
LINE
8
BLACK
6
CONTINUOUS
10
29.7829
20
25.954
11
29.8305
21
26.0017
0
LINE
8
BLACK
6
CONTINUOUS
10
29.8305
20
26.0017
11
29.9257
21
26.0493
0
LINE
8
BLACK
6
CONTINUOUS
10
29.9257
20
26.0493
11
30.0686
21
26.0493
0
LINE
8
BLACK
6
CONTINUOUS
10
30.0686
20
26.0493
11
30.1638
21
26.0017
0
LINE
8
BLACK
6
CONTINUOUS
10
30.1638
20
26.0017
11
30.2115
21
25.9064
0
LINE
8
BLACK
6
CONTINUOUS
10
30.2115
20
25.9064
11
30.2115
21
25.3826
0
LINE
8
BLACK
6
CONTINUOUS
10
30.2115
20
25.9064
11
30.2591
21
26.0017
0
LINE
8
BLACK
6
CONTINUOUS
10
30.2591
20
26.0017
11
30.3543
21
26.0493
0
LINE
8
BLACK
6
CONTINUOUS
10
30.3543
20
26.0493
11
30.4972
21
26.0493
0
LINE
8
BLACK
6
CONTINUOUS
10
30.4972
20
26.0493
11
30.5924
21
26.0017
0
LINE
8
BLACK
6
CONTINUOUS
10
30.5924
20
26.0017
11
30.64
21
25.9064
0
LINE
8
BLACK
6
CONTINUOUS
10
30.64
20
25.9064
11
30.64
21
25.3826
0
LINE
8
BLACK
6
CONTINUOUS
10
54.042
20
21.629
11
54.042
21
26.4214
0
LINE
8
BLACK
6
CONTINUOUS
10
0
20
21.629
11
0
21
26.4214
0
LINE
8
BLACK
6
CONTINUOUS
10
54.042
20
25.835
11
31.4531
21
25.835
0
LINE
8
BLACK
6
CONTINUOUS
10
22.5888
20
25.835
11
0
21
25.835
0
LINE
8
BLACK
6
CONTINUOUS
10
54.042
20
25.835
11
52.9155
21
26.4214
0
LINE
8
BLACK
6
CONTINUOUS
10
54.042
20
25.835
11
52.9155
21
25.2486
0
LINE
8
BLACK
6
CONTINUOUS
10
0
20
25.835
11
1.1265
21
25.2486
0
LINE
8
BLACK
6
CONTINUOUS
10
0
20
25.835
11
1.1265
21
26.4214
0
LINE
8
BLACK
6
CONTINUOUS
10
-3.31543
20
7.62833
11
-3.36305
21
7.67595
0
LINE
8
BLACK
6
CONTINUOUS
10
-3.36305
20
7.67595
11
-3.41067
21
7.77119
0
LINE
8
BLACK
6
CONTINUOUS
10
-3.41067
20
7.77119
11
-3.41067
21
8.00929
0
LINE
8
BLACK
6
CONTINUOUS
10
-3.41067
20
8.00929
11
-3.36305
21
8.10452
0
LINE
8
BLACK
6
CONTINUOUS
10
-3.36305
20
8.10452
11
-3.31543
21
8.15214
0
LINE
8
BLACK
6
CONTINUOUS
10
-3.31543
20
8.15214
11
-3.22019
21
8.19976
0
LINE
8
BLACK
6
CONTINUOUS
10
-3.22019
20
8.19976
11
-3.12495
21
8.19976
0
LINE
8
BLACK
6
CONTINUOUS
10
-3.12495
20
8.19976
11
-2.98209
21
8.15214
0
LINE
8
BLACK
6
CONTINUOUS
10
-2.98209
20
8.15214
11
-2.41067
21
7.58071
0
LINE
8
BLACK
6
CONTINUOUS
10
-2.41067
20
7.58071
11
-2.41067
21
8.19976
0
LINE
8
BLACK
6
CONTINUOUS
10
-3.31543
20
8.58071
11
-3.36305
21
8.62833
0
LINE
8
BLACK
6
CONTINUOUS
10
-3.36305
20
8.62833
11
-3.41067
21
8.72357
0
LINE
8
BLACK
6
CONTINUOUS
10
-3.41067
20
8.72357
11
-3.41067
21
8.96167
0
LINE
8
BLACK
6
CONTINUOUS
10
-3.41067
20
8.96167
11
-3.36305
21
9.05691
0
LINE
8
BLACK
6
CONTINUOUS
10
-3.36305
20
9.05691
11
-3.31543
21
9.10452
0
LINE
8
BLACK
6
CONTINUOUS
10
-3.31543
20
9.10452
11
-3.22019
21
9.15214
0
LINE
8
BLACK
6
CONTINUOUS
10
-3.22019
20
9.15214
11
-3.12495
21
9.15214
0
LINE
8
BLACK
6
CONTINUOUS
10
-3.12495
20
9.15214
11
-2.98209
21
9.10452
0
LINE
8
BLACK
6
CONTINUOUS
10
-2.98209
20
9.10452
11
-2.41067
21
8.5331
0
LINE
8
BLACK
6
CONTINUOUS
10
-2.41067
20
8.5331
11
-2.41067
21
9.15214
0
LINE
8
BLACK
6
CONTINUOUS
10
-2.5059
20
9.58071
11
-2.45829
21
9.62833
0
LINE
8
BLACK
6
CONTINUOUS
10
-2.45829
20
9.62833
11
-2.41067
21
9.58071
0
LINE
8
BLACK
6
CONTINUOUS
10
-2.41067
20
9.58071
11
-2.45829
21
9.5331
0
LINE
8
BLACK
6
CONTINUOUS
10
-2.45829
20
9.5331
11
-2.5059
21
9.58071
0
LINE
8
BLACK
6
CONTINUOUS
10
-2.5059
20
9.58071
11
-2.41067
21
9.58071
0
LINE
8
BLACK
6
CONTINUOUS
10
-3.41067
20
10.5331
11
-3.41067
21
10.0569
0
LINE
8
BLACK
6
CONTINUOUS
10
-3.41067
20
10.0569
11
-2.93447
21
10.0093
0
LINE
8
BLACK
6
CONTINUOUS
10
-2.93447
20
10.0093
11
-2.98209
21
10.0569
0
LINE
8
BLACK
6
CONTINUOUS
10
-2.98209
20
10.0569
11
-3.02971
21
10.1521
0
LINE
8
BLACK
6
CONTINUOUS
10
-3.02971
20
10.1521
11
-3.02971
21
10.3902
0
LINE
8
BLACK
6
CONTINUOUS
10
-3.02971
20
10.3902
11
-2.98209
21
10.4855
0
LINE
8
BLACK
6
CONTINUOUS
10
-2.98209
20
10.4855
11
-2.93447
21
10.5331
0
LINE
8
BLACK
6
CONTINUOUS
10
-2.93447
20
10.5331
11
-2.83924
21
10.5807
0
LINE
8
BLACK
6
CONTINUOUS
10
-2.83924
20
10.5807
11
-2.60114
21
10.5807
0
LINE
8
BLACK
6
CONTINUOUS
10
-2.60114
20
10.5807
11
-2.5059
21
10.5331
0
LINE
8
BLACK
6
CONTINUOUS
10
-2.5059
20
10.5331
11
-2.45829
21
10.4855
0
LINE
8
BLACK
6
CONTINUOUS
10
-2.45829
20
10.4855
11
-2.41067
21
10.3902
0
LINE
8
BLACK
6
CONTINUOUS
10
-2.41067
20
10.3902
11
-2.41067
21
10.1521
0
LINE
8
BLACK
6
CONTINUOUS
10
-2.41067
20
10.1521
11
-2.45829
21
10.0569
0
LINE
8
BLACK
6
CONTINUOUS
10
-2.45829
20
10.0569
11
-2.5059
21
10.0093
0
LINE
8
BLACK
6
CONTINUOUS
10
-3.41067
20
11.4855
11
-3.41067
21
11.0093
0
LINE
8
BLACK
6
CONTINUOUS
10
-3.41067
20
11.0093
11
-2.93447
21
10.9617
0
LINE
8
BLACK
6
CONTINUOUS
10
-2.93447
20
10.9617
11
-2.98209
21
11.0093
0
LINE
8
BLACK
6
CONTINUOUS
10
-2.98209
20
11.0093
11
-3.02971
21
11.1045
0
LINE
8
BLACK
6
CONTINUOUS
10
-3.02971
20
11.1045
11
-3.02971
21
11.3426
0
LINE
8
BLACK
6
CONTINUOUS
10
-3.02971
20
11.3426
11
-2.98209
21
11.4379
0
LINE
8
BLACK
6
CONTINUOUS
10
-2.98209
20
11.4379
11
-2.93447
21
11.4855
0
LINE
8
BLACK
6
CONTINUOUS
10
-2.93447
20
11.4855
11
-2.83924
21
11.5331
0
LINE
8
BLACK
6
CONTINUOUS
10
-2.83924
20
11.5331
11
-2.60114
21
11.5331
0
LINE
8
BLACK
6
CONTINUOUS
10
-2.60114
20
11.5331
11
-2.5059
21
11.4855
0
LINE
8
BLACK
6
CONTINUOUS
10
-2.5059
20
11.4855
11
-2.45829
21
11.4379
0
LINE
8
BLACK
6
CONTINUOUS
10
-2.45829
20
11.4379
11
-2.41067
21
11.3426
0
LINE
8
BLACK
6
CONTINUOUS
10
-2.41067
20
11.3426
11
-2.41067
21
11.1045
0
LINE
8
BLACK
6
CONTINUOUS
10
-2.41067
20
11.1045
11
-2.45829
21
11.0093
0
LINE
8
BLACK
6
CONTINUOUS
10
-2.45829
20
11.0093
11
-2.5059
21
10.9617
0
LINE
8
BLACK
6
CONTINUOUS
10
-2.41067
20
12.7236
11
-3.07733
21
12.7236
0
LINE
8
BLACK
6
CONTINUOUS
10
-2.98209
20
12.7236
11
-3.02971
21
12.7712
0
LINE
8
BLACK
6
CONTINUOUS
10
-3.02971
20
12.7712
11
-3.07733
21
12.8664
0
LINE
8
BLACK
6
CONTINUOUS
10
-3.07733
20
12.8664
11
-3.07733
21
13.0093
0
LINE
8
BLACK
6
CONTINUOUS
10
-3.07733
20
13.0093
11
-3.02971
21
13.1045
0
LINE
8
BLACK
6
CONTINUOUS
10
-3.02971
20
13.1045
11
-2.93447
21
13.1521
0
LINE
8
BLACK
6
CONTINUOUS
10
-2.93447
20
13.1521
11
-2.41067
21
13.1521
0
LINE
8
BLACK
6
CONTINUOUS
10
-2.93447
20
13.1521
11
-3.02971
21
13.1998
0
LINE
8
BLACK
6
CONTINUOUS
10
-3.02971
20
13.1998
11
-3.07733
21
13.295
0
LINE
8
BLACK
6
CONTINUOUS
10
-3.07733
20
13.295
11
-3.07733
21
13.4379
0
LINE
8
BLACK
6
CONTINUOUS
10
-3.07733
20
13.4379
11
-3.02971
21
13.5331
0
LINE
8
BLACK
6
CONTINUOUS
10
-3.02971
20
13.5331
11
-2.93447
21
13.5807
0
LINE
8
BLACK
6
CONTINUOUS
10
-2.93447
20
13.5807
11
-2.41067
21
13.5807
0
LINE
8
BLACK
6
CONTINUOUS
10
-2.41067
20
14.0569
11
-3.07733
21
14.0569
0
LINE
8
BLACK
6
CONTINUOUS
10
-2.98209
20
14.0569
11
-3.02971
21
14.1045
0
LINE
8
BLACK
6
CONTINUOUS
10
-3.02971
20
14.1045
11
-3.07733
21
14.1998
0
LINE
8
BLACK
6
CONTINUOUS
10
-3.07733
20
14.1998
11
-3.07733
21
14.3426
0
LINE
8
BLACK
6
CONTINUOUS
10
-3.07733
20
14.3426
11
-3.02971
21
14.4379
0
LINE
8
BLACK
6
CONTINUOUS
10
-3.02971
20
14.4379
11
-2.93447
21
14.4855
0
LINE
8
BLACK
6
CONTINUOUS
10
-2.93447
20
14.4855
11
-2.41067
21
14.4855
0
LINE
8
BLACK
6
CONTINUOUS
10
-2.93447
20
14.4855
11
-3.02971
21
14.5331
0
LINE
8
BLACK
6
CONTINUOUS
10
-3.02971
20
14.5331
11
-3.07733
21
14.6283
0
LINE
8
BLACK
6
CONTINUOUS
10
-3.07733
20
14.6283
11
-3.07733
21
14.7712
0
LINE
8
BLACK
6
CONTINUOUS
10
-3.07733
20
14.7712
11
-3.02971
21
14.8664
0
LINE
8
BLACK
6
CONTINUOUS
10
-3.02971
20
14.8664
11
-2.93447
21
14.914
0
LINE
8
BLACK
6
CONTINUOUS
10
-2.93447
20
14.914
11
-2.41067
21
14.914
0
LINE
8
BLACK
6
CONTINUOUS
10
2.04002
20
22.57
11
-3.44947
21
22.57
0
LINE
8
BLACK
6
CONTINUOUS
10
2.04002
20
0.02
11
-3.44947
21
0.02
0
LINE
8
BLACK
6
CONTINUOUS
10
-2.86305
20
22.57
11
-2.86305
21
15.7271
0
LINE
8
BLACK
6
CONTINUOUS
10
-2.86305
20
6.86286
11
-2.86305
21
0.02
0
LINE
8
BLACK
6
CONTINUOUS
10
-2.86305
20
22.57
11
-3.44947
21
21.4435
0
LINE
8
BLACK
6
CONTINUOUS
10
-2.86305
20
22.57
11
-2.27662
21
21.4435
0
LINE
8
BLACK
6
CONTINUOUS
10
-2.86305
20
0.02
11
-2.27662
21
1.1465
0
LINE
8
BLACK
6
CONTINUOUS
10
-2.86305
20
0.02
11
-3.44947
21
1.1465
0
LINE
8
BLACK
6
CONTINUOUS
10
0.675596
20
-4.38887
11
0.723122
21
-4.34116
0
LINE
8
BLACK
6
CONTINUOUS
10
0.723122
20
-4.34116
11
0.818267
21
-4.29336
0
LINE
8
BLACK
6
CONTINUOUS
10
0.818267
20
-4.29336
11
1.05636
21
-4.29289
0
LINE
8
BLACK
6
CONTINUOUS
10
1.05636
20
-4.29289
11
1.15169
21
-4.34032
0
LINE
8
BLACK
6
CONTINUOUS
10
1.15169
20
-4.34032
11
1.19941
21
-4.38785
0
LINE
8
BLACK
6
CONTINUOUS
10
1.19941
20
-4.38785
11
1.24721
21
-4.48299
0
LINE
8
BLACK
6
CONTINUOUS
10
1.24721
20
-4.48299
11
1.2474
21
-4.57823
0
LINE
8
BLACK
6
CONTINUOUS
10
1.2474
20
-4.57823
11
1.20006
21
-4.72118
0
LINE
8
BLACK
6
CONTINUOUS
10
1.20006
20
-4.72118
11
0.629751
21
-5.29373
0
LINE
8
BLACK
6
CONTINUOUS
10
0.629751
20
-5.29373
11
1.2488
21
-5.29251
0
LINE
8
BLACK
6
CONTINUOUS
10
1.67718
20
-5.19644
11
1.72489
21
-5.24396
0
LINE
8
BLACK
6
CONTINUOUS
10
1.72489
20
-5.24396
11
1.67737
21
-5.29167
0
LINE
8
BLACK
6
CONTINUOUS
10
1.67737
20
-5.29167
11
1.62966
21
-5.24415
0
LINE
8
BLACK
6
CONTINUOUS
10
1.62966
20
-5.24415
11
1.67718
21
-5.19644
0
LINE
8
BLACK
6
CONTINUOUS
10
1.67718
20
-5.19644
11
1.67737
21
-5.29167
0
LINE
8
BLACK
6
CONTINUOUS
10
2.62779
20
-4.28981
11
2.1516
21
-4.29074
0
LINE
8
BLACK
6
CONTINUOUS
10
2.1516
20
-4.29074
11
2.10491
21
-4.76703
0
LINE
8
BLACK
6
CONTINUOUS
10
2.10491
20
-4.76703
11
2.15244
21
-4.71931
0
LINE
8
BLACK
6
CONTINUOUS
10
2.15244
20
-4.71931
11
2.24758
21
-4.67151
0
LINE
8
BLACK
6
CONTINUOUS
10
2.24758
20
-4.67151
11
2.48568
21
-4.67104
0
LINE
8
BLACK
6
CONTINUOUS
10
2.48568
20
-4.67104
11
2.58101
21
-4.71847
0
LINE
8
BLACK
6
CONTINUOUS
10
2.58101
20
-4.71847
11
2.62872
21
-4.766
0
LINE
8
BLACK
6
CONTINUOUS
10
2.62872
20
-4.766
11
2.67653
21
-4.86114
0
LINE
8
BLACK
6
CONTINUOUS
10
2.67653
20
-4.86114
11
2.67699
21
-5.09924
0
LINE
8
BLACK
6
CONTINUOUS
10
2.67699
20
-5.09924
11
2.62956
21
-5.19457
0
LINE
8
BLACK
6
CONTINUOUS
10
2.62956
20
-5.19457
11
2.58203
21
-5.24228
0
LINE
8
BLACK
6
CONTINUOUS
10
2.58203
20
-5.24228
11
2.48689
21
-5.29009
0
LINE
8
BLACK
6
CONTINUOUS
10
2.48689
20
-5.29009
11
2.2488
21
-5.29055
0
LINE
8
BLACK
6
CONTINUOUS
10
2.2488
20
-5.29055
11
2.15346
21
-5.24312
0
LINE
8
BLACK
6
CONTINUOUS
10
2.15346
20
-5.24312
11
2.10575
21
-5.1956
0
LINE
8
BLACK
6
CONTINUOUS
10
3.5332
20
-4.62137
11
3.53451
21
-5.28803
0
LINE
8
BLACK
6
CONTINUOUS
10
3.29436
20
-4.24088
11
3.05767
21
-4.95563
0
LINE
8
BLACK
6
CONTINUOUS
10
3.05767
20
-4.95563
11
3.67671
21
-4.95442
0
LINE
8
BLACK
6
CONTINUOUS
10
4.82022
20
-5.28551
11
4.81891
21
-4.61885
0
LINE
8
BLACK
6
CONTINUOUS
10
4.8191
20
-4.71408
11
4.86662
21
-4.66637
0
LINE
8
BLACK
6
CONTINUOUS
10
4.86662
20
-4.66637
11
4.96177
21
-4.61857
0
LINE
8
BLACK
6
CONTINUOUS
10
4.96177
20
-4.61857
11
5.10463
21
-4.61829
0
LINE
8
BLACK
6
CONTINUOUS
10
5.10463
20
-4.61829
11
5.19996
21
-4.66572
0
LINE
8
BLACK
6
CONTINUOUS
10
5.19996
20
-4.66572
11
5.24776
21
-4.76086
0
LINE
8
BLACK
6
CONTINUOUS
10
5.24776
20
-4.76086
11
5.24879
21
-5.28467
0
LINE
8
BLACK
6
CONTINUOUS
10
5.24776
20
-4.76086
11
5.29519
21
-4.66553
0
LINE
8
BLACK
6
CONTINUOUS
10
5.29519
20
-4.66553
11
5.39034
21
-4.61773
0
LINE
8
BLACK
6
CONTINUOUS
10
5.39034
20
-4.61773
11
5.5332
21
-4.61745
0
LINE
8
BLACK
6
CONTINUOUS
10
5.5332
20
-4.61745
11
5.62853
21
-4.66488
0
LINE
8
BLACK
6
CONTINUOUS
10
5.62853
20
-4.66488
11
5.67633
21
-4.76002
0
LINE
8
BLACK
6
CONTINUOUS
10
5.67633
20
-4.76002
11
5.67736
21
-5.28383
0
LINE
8
BLACK
6
CONTINUOUS
10
6.15355
20
-5.2829
11
6.15224
21
-4.61623
0
LINE
8
BLACK
6
CONTINUOUS
10
6.15243
20
-4.71147
11
6.19996
21
-4.66376
0
LINE
8
BLACK
6
CONTINUOUS
10
6.19996
20
-4.66376
11
6.2951
21
-4.61595
0
LINE
8
BLACK
6
CONTINUOUS
10
6.2951
20
-4.61595
11
6.43796
21
-4.61567
0
LINE
8
BLACK
6
CONTINUOUS
10
6.43796
20
-4.61567
11
6.53329
21
-4.6631
0
LINE
8
BLACK
6
CONTINUOUS
10
6.53329
20
-4.6631
11
6.58109
21
-4.75825
0
LINE
8
BLACK
6
CONTINUOUS
10
6.58109
20
-4.75825
11
6.58212
21
-5.28206
0
LINE
8
BLACK
6
CONTINUOUS
10
6.58109
20
-4.75825
11
6.62853
21
-4.66292
0
LINE
8
BLACK
6
CONTINUOUS
10
6.62853
20
-4.66292
11
6.72367
21
-4.61511
0
LINE
8
BLACK
6
CONTINUOUS
10
6.72367
20
-4.61511
11
6.86653
21
-4.61483
0
LINE
8
BLACK
6
CONTINUOUS
10
6.86653
20
-4.61483
11
6.96186
21
-4.66226
0
LINE
8
BLACK
6
CONTINUOUS
10
6.96186
20
-4.66226
11
7.00967
21
-4.75741
0
LINE
8
BLACK
6
CONTINUOUS
10
7.00967
20
-4.75741
11
7.01069
21
-5.28122
0
LINE
8
BLACK
6
CONTINUOUS
10
2.60793
20
0.640021
11
2.61679
21
-3.87654
0
LINE
8
BLACK
6
CONTINUOUS
10
5.14793
20
0.645001
11
5.15679
21
-3.87156
0
LINE
8
BLACK
6
CONTINUOUS
10
2.61564
20
-3.29012
11
5.15564
21
-3.28514
0
LINE
8
BLACK
6
CONTINUOUS
10
2.61564
20
-3.29012
11
5.15564
21
-3.28514
0
LINE
8
BLACK
6
CONTINUOUS
10
2.61564
20
-3.29012
11
3.74329
21
-3.87433
0
LINE
8
BLACK
6
CONTINUOUS
10
2.61564
20
-3.29012
11
3.74099
21
-2.70149
0
LINE
8
BLACK
6
CONTINUOUS
10
5.15564
20
-3.28514
11
4.02799
21
-2.70093
0
LINE
8
BLACK
6
CONTINUOUS
10
5.15564
20
-3.28514
11
4.03029
21
-3.87377
  0
ENDSEC
  0
EOF
